# xmcd
#
# Track frame offsets:
#	150
#	17777
#	30905
#	46877
#	64925
#	77535
#	92090
#	108165
#	127285
#	141192
#	158375
#	167600
#	187120
#	213925
#	234470
#	246675
#	269340
#	302400
#	333132
#
# Disc length: 4447 seconds
#
# Revision: 33
# Processed by: cddbd v1.5.2PL0 Copyright (c) Steve Scherf et al.
# Submitted via: audiograbber 1.83.01
#
DISCID=fb115d13
DTITLE=Howard Shore - Der Herr der Ringe - Die Gefährten (2001) (OST)
DYEAR=2001
DGENRE=Soundtrack
TTITLE0=Howard Shore - The Prophecy
TTITLE1=Howard Shore - Concerning Hobbits
TTITLE2=Howard Shore - The Shadow Of The Past
TTITLE3=Howard Shore - The Treason Of Isengard
TTITLE4=Howard Shore - The Black Rider
TTITLE5=Howard Shore - At The Sign Of The Prancing Pony
TTITLE6=Howard Shore - A Knife In The Dark
TTITLE7=Howard Shore - Flight To The Ford
TTITLE8=Howard Shore - Many Meetings
TTITLE9=Enya - The Council Of Elrond Featuring "Aníron (Theme for Aragorn And A
TTITLE9=rwen)"
TTITLE10=Howard Shore - The Ring Goes South
TTITLE11=Howard Shore - A Journey In The Dark
TTITLE12=Howard Shore - The Bridge Of Khazad Dum
TTITLE13=Howard Shore - Lothlorien
TTITLE14=Howard Shore - The Great River
TTITLE15=Howard Shore - Amon Hen
TTITLE16=Howard Shore - The Breaking Of The Fellowship
TTITLE17=Enya - May It Be
TTITLE18=DATA - Data
EXTD=YEAR: 2001\n\nMARO\n
EXTT0=
EXTT1=
EXTT2=
EXTT3=
EXTT4=
EXTT5=
EXTT6=
EXTT7=
EXTT8=
EXTT9=
EXTT10=
EXTT11=
EXTT12=
EXTT13=
EXTT14=
EXTT15=
EXTT16=
EXTT17=
EXTT18=
PLAYORDER=
